<?xml version="1.0" encoding="utf-8"?>
<!-- Generator: Adobe Illustrator 19.2.1, SVG Export Plug-In . SVG Version: 6.00 Build 0)  -->
<svg version="1.1"
	 id="svg2" xmlns:cc="http://creativecommons.org/ns#" xmlns:dc="http://purl.org/dc/elements/1.1/" xmlns:rdf="http://www.w3.org/1999/02/22-rdf-syntax-ns#" xmlns:svg="http://www.w3.org/2000/svg"
	 xmlns="http://www.w3.org/2000/svg" xmlns:xlink="http://www.w3.org/1999/xlink" x="0px" y="0px" viewBox="0 0 47.5 47.5"
	 style="enable-background:new 0 0 47.5 47.5;" xml:space="preserve">
<style type="text/css">
	.st0{fill:#D79E84;}
	.st1{clip-path:url(#SVGID_2_);}
	.st2{fill:#292F33;}
	.st3{fill:#FFD983;}
	.st4{fill:#BF6952;}
	.st5{fill:#C1694F;}
	.st6{fill:#664500;}
	.st7{clip-path:url(#SVGID_4_);}
	.st8{fill:#DD2E44;}
</style>
<g id="g10" transform="matrix(1.25,0,0,-1.25,0,47.5)">
	<g id="g12" transform="translate(8,2)">
		<path id="path14" class="st0" d="M0,0h-3l1,9.7h3L0,0z"/>
	</g>
	<g id="g16">
		<g>
			<defs>
				<rect id="SVGID_1_" x="-4.8" y="-4.8" width="47.5" height="47.5"/>
			</defs>
			<clipPath id="SVGID_2_">
				<use xlink:href="#SVGID_1_"  style="overflow:visible;"/>
			</clipPath>
			<g id="g18" class="st1">
				<g id="g24" transform="translate(13.8755,3.208)">
					<path id="path26" class="st0" d="M0,0l-1.8,1.3c0,0,3.2,3,2.5,4C0.1,6.3-3.1,7-3.1,7l1.9,2.3c0,0,4-1.9,4.8-3.3
						C4.4,4.5,0,0,0,0"/>
				</g>
				<g id="g28" transform="translate(4,1)">
					<path id="path30" class="st2" d="M0,0v1c0,0,0,1,2,1s2-1,2-1V0H0z"/>
				</g>
				<g id="g32" transform="translate(14.5532,1.5166)">
					<path id="path34" class="st2" d="M0,0l0.4,0.9c0,0,0.4,0.9-1.4,1.7c-1.8,0.8-2.2-0.1-2.2-0.1l-0.4-0.9L0,0z"/>
				</g>
				<g id="g36" transform="translate(5,10.7119)">
					<path id="path38" class="st0" d="M0,0c-0.3,0-0.5,0.1-0.7,0.3l-3,3c-0.4,0.4-0.4,0.9-0.1,1.3l4,3.3c0.3,0.4,1,0.5,1.4,0.2
						c0.4-0.3,0.5-1,0.2-1.4l-3.4-2.6l2.4-2.4c0.4-0.4,0.4-1,0-1.4C0.5,0.1,0.3,0,0,0"/>
				</g>
				<g id="g40" transform="translate(15,10.7119)">
					<path id="path42" class="st0" d="M0,0c-0.3,0-0.5,0.1-0.7,0.3c-0.4,0.4-0.4,1,0,1.4l2.4,2.4l-3.4,2.6c-0.3,0.4-0.3,1.1,0.2,1.4
						c0.4,0.3,1.1,0.3,1.4-0.2l4-3.3c0.3-0.4,0.3-1-0.1-1.3l-3-3C0.5,0.1,0.3,0,0,0"/>
				</g>
				<g id="g44" transform="translate(16,18)">
					<path id="path46" class="st2" d="M0,0c0,1.1-0.9,2-2,2h-2h-4h-2c-1.1,0-2-0.9-2-2v-1h2v-1.3v-1v-3l3-2h2l3,2v3v1V-1h2
						C0-1,0,0,0,0z"/>
				</g>
				<g id="g48" transform="translate(17,27.999)">
					<path id="path50" class="st3" d="M0,0c0,3.3-2.7,6-6,6c-1.3,0-2.4-0.4-3.4-1.1C-9.6,5-9.8,5-10,5c-2.2,0-4-1.8-4-4v-6h4.7
						C-8.4-5.6-7.2-6-6-6s2.4,0.4,3.3,1H0V0z"/>
				</g>
				<g id="g52" transform="translate(12,20)">
					<path id="path54" class="st0" d="M0,0v3h-4V0h-1v-1c0,0,0-3,3-3s3,3,3,3v1H0z"/>
				</g>
				<g id="g56" transform="translate(12,23)">
					<path id="path58" class="st4" d="M0,0l-4,0v-4c0,0,2-1,4,0V0z"/>
				</g>
				<g id="g60" transform="translate(15,31)">
					<path id="path62" class="st0" d="M0,0h-10v-6l0,0c0-2.8,2.2-5,5-5c2.8,0,5,2.2,5,5l0,0V0z"/>
				</g>
				<g id="g64" transform="translate(8,31)">
					<path id="path66" class="st3" d="M0,0c0,0,0-4,8-4v4H0z"/>
				</g>
				<g id="g68" transform="translate(8,31)">
					<path id="path70" class="st3" d="M0,0c0,0,0-4-4-4v4H0z"/>
				</g>
				<g id="g72" transform="translate(12,22)">
					<path id="path74" class="st5" d="M0,0h-2h-2c0,0,0-1,2-1S0,0,0,0"/>
				</g>
				<g id="g76" transform="translate(8,25.5)">
					<path id="path78" class="st6" d="M0,0c0-0.3-0.2-0.5-0.5-0.5S-1-0.3-1,0s0.2,0.5,0.5,0.5S0,0.3,0,0"/>
				</g>
				<g id="g80" transform="translate(13,25.5)">
					<path id="path82" class="st6" d="M0,0c0-0.3-0.2-0.5-0.5-0.5S-1-0.3-1,0s0.2,0.5,0.5,0.5S0,0.3,0,0"/>
				</g>
				<g id="g84" transform="translate(9,24)">
					<path id="path86" class="st5" d="M0,0h1h1c0,0,0-1-1-1S0,0,0,0"/>
				</g>
				<g id="g88" transform="translate(4.6875,35.875)">
					<path id="path90" class="st2" d="M0,0c2.6,0.2,3.8-2.9,3-4.2C1-4.2-0.9-2.4,0,0"/>
				</g>
				<g id="g92" transform="translate(14.6748,35.8125)">
					<path id="path94" class="st2" d="M0,0c-2.6,0.2-3.8-2.9-3-4.2C-1-4.2,0.9-2.4,0,0"/>
				</g>
				<g id="g96" transform="translate(7.3125,32.75)">
					<path id="path98" class="st2" d="M0,0c1.8,1.4,4.3,1.1,5.2-0.2c0-0.3-0.4-1.2-0.7-1C3.7-0.8,2.3-0.2,0.4-1.1C0.3-1.1,0,0,0,0"
						/>
				</g>
				<g id="g100" transform="translate(24,2)">
					<path id="path102" class="st0" d="M0,0h-3l1,9.7h3L0,0z"/>
				</g>
				<g id="g104" transform="translate(29.875,3.208)">
					<path id="path106" class="st0" d="M0,0l-1.8,1.3c0,0,3.2,3,2.5,4S-3.1,7-3.1,7l1.9,2.3c0,0,4-1.9,4.8-3.3C4.4,4.5,0,0,0,0"/>
				</g>
				<g id="g108" transform="translate(30.5527,1.5166)">
					<path id="path110" class="st2" d="M0,0l0.4,0.9c0,0,0.4,0.9-1.4,1.7c-1.8,0.8-2.2-0.1-2.2-0.1l-0.4-0.9L0,0z"/>
				</g>
				<g id="g112" transform="translate(20,1)">
					<path id="path114" class="st2" d="M0,0v1c0,0,0,1,2,1s2-1,2-1V0H0z"/>
				</g>
				<g id="g116" transform="translate(21,10.7119)">
					<path id="path118" class="st0" d="M0,0c-0.3,0-0.5,0.1-0.7,0.3l-3,3c-0.4,0.4-0.4,0.9-0.1,1.3l4,3.3c0.3,0.4,1,0.5,1.4,0.2
						c0.4-0.3,0.5-1,0.2-1.4l-3.4-2.6l2.4-2.4c0.4-0.4,0.4-1,0-1.4C0.5,0.1,0.3,0,0,0"/>
				</g>
				<g id="g120" transform="translate(31,10.7119)">
					<path id="path122" class="st0" d="M0,0c-0.3,0-0.5,0.1-0.7,0.3c-0.4,0.4-0.4,1,0,1.4l2.4,2.4l-3.4,2.6
						c-0.3,0.4-0.3,1.1,0.2,1.4c0.4,0.3,1.1,0.3,1.4-0.2l4-3.3c0.3-0.4,0.3-1-0.1-1.3l-3-3C0.5,0.1,0.3,0,0,0"/>
				</g>
				<g id="g124" transform="translate(32,18)">
					<path id="path126" class="st2" d="M0,0c0,1.1-0.9,2-2,2h-2h-4h-2c-1.1,0-2-0.9-2-2v-1h2v-1.3v-1v-3l3-2h2l3,2v3v1V-1h2
						C0-1,0,0,0,0z"/>
				</g>
				<g id="g128" transform="translate(33,27.999)">
					<path id="path130" class="st3" d="M0,0c0,3.3-2.7,6-6,6c-1.3,0-2.4-0.4-3.4-1.1C-9.6,5-9.8,5-10,5c-2.2,0-4-1.8-4-4v-6h4.7
						C-8.4-5.6-7.2-6-6-6c1.2,0,2.4,0.4,3.3,1H0V0z"/>
				</g>
				<g id="g132" transform="translate(28,20)">
					<path id="path134" class="st0" d="M0,0v3h-4V0h-1v-1c0,0,0-3,3-3s3,3,3,3v1H0z"/>
				</g>
				<g id="g136" transform="translate(28,23)">
					<path id="path138" class="st4" d="M0,0l-4,0v-4c0,0,2-1,4,0V0z"/>
				</g>
				<g id="g140" transform="translate(31,31)">
					<path id="path142" class="st0" d="M0,0h-10v-6l0,0c0-2.8,2.2-5,5-5s5,2.2,5,5l0,0V0z"/>
				</g>
				<g id="g144" transform="translate(24,31)">
					<path id="path146" class="st3" d="M0,0c0,0,0-4,8-4v4H0z"/>
				</g>
				<g id="g148" transform="translate(24,31)">
					<path id="path150" class="st3" d="M0,0c0,0,0-4-4-4v4H0z"/>
				</g>
				<g id="g152" transform="translate(28,22)">
					<path id="path154" class="st5" d="M0,0h-2h-2c0,0,0-1,2-1S0,0,0,0"/>
				</g>
				<g id="g156" transform="translate(24,25.5)">
					<path id="path158" class="st6" d="M0,0c0-0.3-0.2-0.5-0.5-0.5S-1-0.3-1,0s0.2,0.5,0.5,0.5S0,0.3,0,0"/>
				</g>
				<g id="g160" transform="translate(29,25.5)">
					<path id="path162" class="st6" d="M0,0c0-0.3-0.2-0.5-0.5-0.5S-1-0.3-1,0s0.2,0.5,0.5,0.5S0,0.3,0,0"/>
				</g>
				<g id="g164" transform="translate(25,24)">
					<path id="path166" class="st5" d="M0,0h1h1c0,0,0-1-1-1S0,0,0,0"/>
				</g>
				<g id="g168" transform="translate(20.7813,35.875)">
					<path id="path170" class="st2" d="M0,0c2.6,0.2,3.8-2.9,3-4.2C1-4.2-0.9-2.4,0,0"/>
				</g>
				<g id="g172" transform="translate(30.7686,35.8125)">
					<path id="path174" class="st2" d="M0,0c-2.6,0.2-3.8-2.9-3-4.2C-1-4.2,0.9-2.4,0,0"/>
				</g>
				<g id="g176" transform="translate(23.4063,32.75)">
					<path id="path178" class="st2" d="M0,0c1.8,1.4,4.3,1.1,5.2-0.2c0-0.3-0.4-1.2-0.7-1C3.7-0.8,2.3-0.2,0.4-1.1C0.3-1.1,0,0,0,0"
						/>
				</g>
			</g>
		</g>
	</g>
</g>
<g id="g10_1_" transform="matrix(1.25,0,0,-1.25,0,47.5)">
	<g id="g12_1_">
		<g>
			<defs>
				<rect id="SVGID_3_" x="-4.8" y="-4.8" width="47.5" height="47.5"/>
			</defs>
			<clipPath id="SVGID_4_">
				<use xlink:href="#SVGID_3_"  style="overflow:visible;"/>
			</clipPath>
			<g id="g14" class="st7">
				<g id="g20" transform="translate(22.5332,18.9976)">
					<path id="path22" class="st8" d="M0,0l12.2,12.2c1,1,1,2.6,0,3.5c-1,1-2.6,1-3.5,0L-3.5,3.5l-12.2,12.2c-1,1-2.6,1-3.5,0
						c-1-1-1-2.6,0-3.5L-7.1,0l-12.3-12.3c-1-1-1-2.6,0-3.5c0.5-0.5,1.1-0.7,1.8-0.7c0.6,0,1.3,0.2,1.8,0.7L-3.5-3.5L8.7-15.8
						c0.5-0.5,1.1-0.7,1.8-0.7c0.6,0,1.3,0.2,1.8,0.7c1,1,1,2.6,0,3.5L0,0z"/>
				</g>
			</g>
		</g>
	</g>
</g>
</svg>
